<?xml version="1.0" encoding="UTF-8" standalone="no"?> <svg xmlns="http://www.w3.org/2000/svg" viewBox="0 0 107.3 107.3"><defs><style>.cls-1,.cls-2{fill:#39b54a;}.cls-1{fill-rule:evenodd;}</style></defs><title>Asset 2</title><g id="Layer_2" data-name="Layer 2"><g id="图层_1" data-name="图层 1"><path class="cls-1" d="M56.12,18.73A32.39,32.39,0,0,0,28.9,68.67L24,79.51a2.82,2.82,0,0,0,2.58,4,2.64,2.64,0,0,0,.74-.1l13.56-3.72a32.39,32.39,0,1,0,15.26-61Zm0,59.12a26.7,26.7,0,0,1-13.46-3.64,2.89,2.89,0,0,0-1.43-.38,2.76,2.76,0,0,0-.75.1l-8.85,2.43,3.08-6.8a2.83,2.83,0,0,0-.28-2.82A26.73,26.73,0,1,1,56.12,77.85Z"/><path class="cls-1" d="M68.57,56c-1.35-.81-3.12-1.72-4.72-1.06-1.22.5-2,2.42-2.8,3.4a1.18,1.18,0,0,1-1.52.33A21.44,21.44,0,0,1,48.86,49.5,1.31,1.31,0,0,1,49,47.71,7.18,7.18,0,0,0,51,44.56a6.87,6.87,0,0,0-.86-3.72c-.64-1.38-1.36-3.36-2.75-4.14a3.77,3.77,0,0,0-4.09.6,8.31,8.31,0,0,0-2.88,6.58A9.13,9.13,0,0,0,40.64,46a17.07,17.07,0,0,0,2,4.62,37,37,0,0,0,2.09,3.18,32.36,32.36,0,0,0,9.07,8.42,26.94,26.94,0,0,0,5.66,2.69c2.21.73,4.19,1.5,6.58,1a8,8,0,0,0,6-4.44,3.87,3.87,0,0,0,.28-2.27C72,57.65,69.84,56.72,68.57,56Z"/><path class="cls-2" d="M88.49,6.89a11.94,11.94,0,0,1,11.92,11.92V88.49a11.94,11.94,0,0,1-11.92,11.92H18.81A11.94,11.94,0,0,1,6.89,88.49V18.81A11.94,11.94,0,0,1,18.81,6.89H88.49m0-6.89H18.81A18.81,18.81,0,0,0,0,18.81V88.49A18.81,18.81,0,0,0,18.81,107.3H88.49A18.81,18.81,0,0,0,107.3,88.49V18.81A18.81,18.81,0,0,0,88.49,0Z"/></g></g></svg>